<mxfile host="65bd71144e">
    <diagram id="VtEtqV98UW0aGBi-0yoT" name="Page-1">
        <mxGraphModel dx="296" dy="1599" grid="1" gridSize="10" guides="1" tooltips="1" connect="1" arrows="1" fold="1" page="1" pageScale="1" pageWidth="827" pageHeight="1169" math="0" shadow="0">
            <root>
                <mxCell id="0"/>
                <mxCell id="1" parent="0"/>
                <mxCell id="4" value="" style="edgeStyle=none;html=1;" edge="1" parent="1" source="2" target="3">
                    <mxGeometry relative="1" as="geometry"/>
                </mxCell>
                <mxCell id="2" value="User" style="whiteSpace=wrap;html=1;" vertex="1" parent="1">
                    <mxGeometry x="60" y="170" width="120" height="40" as="geometry"/>
                </mxCell>
                <mxCell id="3" value="Client Application" style="whiteSpace=wrap;html=1;" vertex="1" parent="1">
                    <mxGeometry x="240" y="70" width="120" height="240" as="geometry"/>
                </mxCell>
                <mxCell id="5" value="Login" style="text;html=1;align=center;verticalAlign=middle;resizable=0;points=[];autosize=1;strokeColor=none;fillColor=none;" vertex="1" parent="1">
                    <mxGeometry x="60" y="100" width="50" height="30" as="geometry"/>
                </mxCell>
                <mxCell id="6" value="Auth0" style="text;html=1;align=center;verticalAlign=middle;resizable=0;points=[];autosize=1;strokeColor=none;fillColor=none;" vertex="1" parent="1">
                    <mxGeometry x="40" y="360" width="50" height="30" as="geometry"/>
                </mxCell>
                <mxCell id="10" value="" style="endArrow=classic;html=1;exitX=1.025;exitY=0.088;exitDx=0;exitDy=0;exitPerimeter=0;" edge="1" parent="1" source="3">
                    <mxGeometry width="50" height="50" relative="1" as="geometry">
                        <mxPoint x="430" y="270" as="sourcePoint"/>
                        <mxPoint x="590" y="91" as="targetPoint"/>
                    </mxGeometry>
                </mxCell>
                <mxCell id="11" value="" style="endArrow=classic;html=1;entryX=1;entryY=0.25;entryDx=0;entryDy=0;exitX=-0.033;exitY=0.827;exitDx=0;exitDy=0;exitPerimeter=0;" edge="1" parent="1">
                    <mxGeometry width="50" height="50" relative="1" as="geometry">
                        <mxPoint x="586.04" y="124.97000000000003" as="sourcePoint"/>
                        <mxPoint x="360" y="124" as="targetPoint"/>
                    </mxGeometry>
                </mxCell>
                <mxCell id="12" value="1. Login with username and password" style="text;html=1;align=center;verticalAlign=middle;resizable=0;points=[];autosize=1;strokeColor=none;fillColor=none;" vertex="1" parent="1">
                    <mxGeometry x="364" y="68" width="230" height="30" as="geometry"/>
                </mxCell>
                <mxCell id="13" value="" style="whiteSpace=wrap;html=1;" vertex="1" parent="1">
                    <mxGeometry x="590" y="68" width="120" height="242" as="geometry"/>
                </mxCell>
                <mxCell id="14" value="&lt;ul&gt;&lt;li&gt;Login&lt;/li&gt;&lt;li&gt;Logout&lt;/li&gt;&lt;li&gt;Roles&lt;/li&gt;&lt;/ul&gt;" style="text;html=1;align=left;verticalAlign=middle;resizable=0;points=[];autosize=1;strokeColor=none;fillColor=none;" vertex="1" parent="1">
                    <mxGeometry x="20" y="-20" width="100" height="100" as="geometry"/>
                </mxCell>
                <mxCell id="15" value="3. JSON Web Token" style="text;html=1;align=center;verticalAlign=middle;resizable=0;points=[];autosize=1;strokeColor=none;fillColor=none;" vertex="1" parent="1">
                    <mxGeometry x="367" y="100" width="130" height="30" as="geometry"/>
                </mxCell>
                <mxCell id="16" value="Store Token Locally" style="text;html=1;align=center;verticalAlign=middle;resizable=0;points=[];autosize=1;strokeColor=none;fillColor=none;fontColor=#B4BCA7;" vertex="1" parent="1">
                    <mxGeometry x="235" y="108" width="130" height="30" as="geometry"/>
                </mxCell>
                <mxCell id="18" value="" style="endArrow=classic;html=1;exitX=1.025;exitY=0.088;exitDx=0;exitDy=0;exitPerimeter=0;" edge="1" parent="1">
                    <mxGeometry width="50" height="50" relative="1" as="geometry">
                        <mxPoint x="363" y="250.1199999999999" as="sourcePoint"/>
                        <mxPoint x="590" y="250" as="targetPoint"/>
                    </mxGeometry>
                </mxCell>
                <mxCell id="19" value="" style="endArrow=classic;html=1;entryX=1;entryY=0.25;entryDx=0;entryDy=0;exitX=-0.033;exitY=0.827;exitDx=0;exitDy=0;exitPerimeter=0;" edge="1" parent="1">
                    <mxGeometry width="50" height="50" relative="1" as="geometry">
                        <mxPoint x="586.04" y="290.97" as="sourcePoint"/>
                        <mxPoint x="360" y="290" as="targetPoint"/>
                    </mxGeometry>
                </mxCell>
                <mxCell id="20" value="&lt;div style=&quot;text-align: left;&quot;&gt;&lt;span style=&quot;background-color: initial;&quot;&gt;4.send JSON Web Token&lt;/span&gt;&lt;/div&gt;While requesting &lt;br&gt;(e.g on the Authorization hearder)" style="text;html=1;align=center;verticalAlign=middle;resizable=0;points=[];autosize=1;strokeColor=none;fillColor=none;" vertex="1" parent="1">
                    <mxGeometry x="379" y="200" width="200" height="60" as="geometry"/>
                </mxCell>
                <mxCell id="21" value="5. Sends response to client" style="text;html=1;align=center;verticalAlign=middle;resizable=0;points=[];autosize=1;strokeColor=none;fillColor=none;" vertex="1" parent="1">
                    <mxGeometry x="379" y="264" width="170" height="30" as="geometry"/>
                </mxCell>
                <mxCell id="23" value="Server" style="text;html=1;align=center;verticalAlign=middle;resizable=0;points=[];autosize=1;strokeColor=none;fillColor=none;" vertex="1" parent="1">
                    <mxGeometry x="620" y="10" width="60" height="30" as="geometry"/>
                </mxCell>
                <mxCell id="24" value="Browser (client)" style="text;html=1;align=center;verticalAlign=middle;resizable=0;points=[];autosize=1;strokeColor=none;fillColor=none;" vertex="1" parent="1">
                    <mxGeometry x="240" y="40" width="110" height="30" as="geometry"/>
                </mxCell>
                <mxCell id="25" value="2. Generate a JWT with secret" style="whiteSpace=wrap;html=1;labelBorderColor=#000000;" vertex="1" parent="1">
                    <mxGeometry x="590" y="86" width="120" height="40" as="geometry"/>
                </mxCell>
                <mxCell id="26" value="5. Checks the JWT Signature. Gets user information from the JWT" style="whiteSpace=wrap;html=1;labelBorderColor=none;fontColor=default;" vertex="1" parent="1">
                    <mxGeometry x="590" y="240" width="120" height="60" as="geometry"/>
                </mxCell>
                <mxCell id="29" value="User" style="whiteSpace=wrap;html=1;" vertex="1" parent="1">
                    <mxGeometry x="40" y="430" width="120" height="40" as="geometry"/>
                </mxCell>
                <mxCell id="30" value="Web App" style="whiteSpace=wrap;html=1;" vertex="1" parent="1">
                    <mxGeometry x="235" y="430" width="120" height="330" as="geometry"/>
                </mxCell>
                <mxCell id="31" value="Web App" style="whiteSpace=wrap;html=1;" vertex="1" parent="1">
                    <mxGeometry x="466" y="430" width="84" height="335" as="geometry"/>
                </mxCell>
                <mxCell id="32" value="Web App" style="whiteSpace=wrap;html=1;" vertex="1" parent="1">
                    <mxGeometry x="627" y="420" width="83" height="340" as="geometry"/>
                </mxCell>
            </root>
        </mxGraphModel>
    </diagram>
</mxfile>